Coordinates
version=1
nRows=8
nColumns=63
inDegrees=yes

Units are S.I. units (second, meters, Newtons, ...)
If the header above contains a line with 'inDegrees', this indicates whether rotational values are in degrees (yes) or radians (no).

endheader
time	pelvis_tilt	pelvis_list	pelvis_rotation	pelvis_tx	pelvis_ty	pelvis_tz	hip_flexion_r	hip_adduction_r	hip_rotation_r	knee_angle_r	knee_angle_r_beta	ankle_angle_r	subtalar_angle_r	mtp_angle_r	hip_flexion_l	hip_adduction_l	hip_rotation_l	knee_angle_l	knee_angle_l_beta	ankle_angle_l	subtalar_angle_l	mtp_angle_l	L5_S1_Flex_Ext	L5_S1_Lat_Bending	L5_S1_axial_rotation	L4_L5_Flex_Ext	L4_L5_Lat_Bending	L4_L5_axial_rotation	L3_L4_Flex_Ext	L3_L4_Lat_Bending	L3_L4_axial_rotation	L2_L3_Flex_Ext	L2_L3_Lat_Bending	L2_L3_axial_rotation	L1_L2_Flex_Ext	L1_L2_Lat_Bending	L1_L2_axial_rotation	L1_T12_Flex_Ext	L1_T12_Lat_Bending	L1_T12_axial_rotation	Abs_r3	Abs_r2	Abs_r1	Abs_t1	Abs_t2	neck_flexion	neck_bending	neck_rotation	arm_flex_r	arm_add_r	arm_rot_r	elbow_flex_r	pro_sup_r	wrist_flex_r	wrist_dev_r	arm_flex_l	arm_add_l	arm_rot_l	elbow_flex_l	pro_sup_l	wrist_flex_l	wrist_dev_l
      2.85000000	      2.29947537	     -6.90893912	    104.45026295	      0.19218963	      1.03500164	      0.38256786	      6.36333622	     -1.73862794	    -21.13524740	     12.80346417	      0.22346261	     39.13817971	      4.79132154	      0.00000000	      4.17098325	      0.07500721	     23.84011800	      1.20569445	      0.02104334	     31.86500520	     -7.87352539	      0.00000000	     -0.28697894	      0.67947769	     -0.46135589	     -0.53294859	      0.90370533	     -0.49019064	     -0.47147770	      1.65208206	     -0.49019064	     -0.32798823	      1.65208206	     -0.40368641	     -0.26648864	      1.38559091	     -0.37485166	     -0.16397977	      1.05251094	     -0.34601692	     -2.04986188	      7.68638753	     -2.56592307	      0.00000000	      0.00000000	     23.07329958	     -9.86390594	     -4.12852114	      1.08519388	    -22.60762898	    104.43826504	      3.40698212	      3.27037933	     -1.71917644	     -9.77114741	    -13.54903342	    -28.91629498	    137.60354753	      1.10589010	     82.82910001	     -9.48719694	     11.16623092
      2.86666667	      2.12139296	     -7.27575368	    104.16236708	      0.19350644	      1.03440406	      0.38261790	      6.78779322	     -1.88930068	    -20.35096171	     12.90580050	      0.22524871	     38.85122189	      4.04468255	      0.00000000	      4.49682539	      0.28009893	     23.41118180	      1.23349807	      0.02152860	     31.69581600	     -7.99334429	      0.00000000	     -0.26576287	      0.62373564	     -0.55898014	     -0.49354823	      0.82956840	     -0.59391640	     -0.43662183	      1.51655084	     -0.59391640	     -0.30374039	      1.51655084	     -0.48910763	     -0.24678741	      1.27192172	     -0.45417137	     -0.15185691	      0.96616651	     -0.41923511	     -1.89831764	      7.05582232	     -3.10887987	      0.00000000	      0.00000000	     23.36205853	     -9.22253351	     -2.55426766	      3.01464084	    -22.09445838	    103.00487373	      3.78855337	      3.38758150	     -1.39445442	     -9.82481549	    -13.27699663	    -29.22615954	    124.87573322	      0.96591941	     80.37413358	    -10.03761639	      9.13606419
      2.88333333	      1.86347007	     -7.64036784	    103.80357345	      0.19486470	      1.03375449	      0.38215794	      7.13019015	     -2.19008194	    -20.29331889	     13.10824992	      0.22878212	     38.88327345	      4.27388690	      0.00000000	      4.72754949	      0.55981624	     22.97123793	      1.30932575	      0.02285205	     31.32213229	     -8.56243513	      0.00000000	     -0.23552984	      0.55113227	     -0.63810259	     -0.43740247	      0.73300592	     -0.67798401	     -0.38695198	      1.34002301	     -0.67798401	     -0.26918706	      1.34002301	     -0.55833977	     -0.21871301	      1.12386893	     -0.51845836	     -0.13458175	      0.85370389	     -0.47857695	     -1.68236612	      6.23451849	     -3.54893520	      0.00000000	      0.00000000	     23.43863777	     -8.44823633	     -1.42823900	      4.99606815	    -21.38652693	    102.21566262	      4.11845515	      3.43775670	     -1.44052431	     -9.51045841	    -13.98592731	    -29.69793722	    103.75905201	      1.21274676	     53.84939411	     -9.91425076	      4.50130801
      2.90000000	      1.51813453	     -7.96709960	    103.34011838	      0.19639377	      1.03310939	      0.38164997	      7.42018463	     -2.54878329	    -20.07614613	     13.38784600	      0.23366199	     39.00257404	      4.32813172	      0.00000000	      4.87273262	      0.90686094	     22.16558425	      1.42881325	      0.02493750	     30.85552754	     -9.07361294	      0.00000000	     -0.20426467	      0.46314336	     -0.68426961	     -0.37933992	      0.61598066	     -0.72703646	     -0.33558642	      1.12608675	     -0.72703646	     -0.23345409	      1.12608675	     -0.59873591	     -0.18968017	      0.94444193	     -0.55596906	     -0.11671683	      0.71740906	     -0.51320221	     -1.45904210	      5.23917026	     -3.80570227	      0.00000000	      0.00000000	     23.30058190	     -7.41227756	     -0.41576805	      7.01209761	    -20.58866787	    100.75504013	      4.61653087	      3.60305132	     -1.68076430	     -8.97729243	    -14.85490100	    -29.39026548	     85.46580119	      2.45705945	     22.10954575	     -7.89169647	      1.33784117
      2.91666667	      1.15767830	     -8.20954507	    102.89712621	      0.19799076	      1.03257516	      0.38120988	      7.65071558	     -2.84142830	    -19.39173458	     13.72981363	      0.23963045	     39.03254471	      3.63835293	      0.00000000	      4.93443524	      1.23607764	     21.04669361	      1.58281711	      0.02762537	     30.44213209	     -9.19275494	      0.00000000	     -0.17215961	      0.37448227	     -0.71741620	     -0.31971761	      0.49806142	     -0.76225472	     -0.28284102	      0.91051619	     -0.76225472	     -0.19676121	      0.91051619	     -0.62773918	     -0.15986741	      0.76364424	     -0.58290066	     -0.09837200	      0.58007303	     -0.53806215	     -1.22971886	      4.23621832	     -3.99005369	      0.00000000	      0.00000000	     22.95852894	     -6.04602708	      0.69786187	      8.99426238	    -19.87438406	     97.88300473	      5.47485394	      3.93875033	     -2.18642182	     -8.59203977	    -14.41395547	    -28.94852523	     76.92092690	      3.02883750	     18.48151278	     -7.40425886	      0.58187808
      2.93333333	      0.75997130	     -8.37289403	    102.61534075	      0.19925604	      1.03219263	      0.38072720	      7.72168698	     -3.21071872	    -19.22587000	     14.03805124	      0.24501021	     39.13019331	      3.48879297	      0.00000000	      4.94242273	      1.61302031	     20.25138047	      1.77250896	      0.03093612	     30.07605255	     -9.42622833	      0.00000000	     -0.14101639	      0.28676314	     -0.79471505	     -0.26188153	      0.38139498	     -0.84438474	     -0.23167582	      0.69723591	     -0.84438474	     -0.16116763	      0.69723591	     -0.69537567	     -0.13094782	      0.58476740	     -0.64570598	     -0.08057676	      0.44419611	     -0.59603629	     -1.00726594	      3.24392202	     -4.41996671	      0.00000000	      0.00000000	     22.59722169	     -5.23033397	      1.47765251	     11.00659898	    -18.96445259	     97.02733246	      5.73315318	      3.59186591	     -2.47486807	     -8.72175253	    -13.56428901	    -28.44900937	     76.39678673	      2.96836681	     18.80695789	     -7.33856970	      0.22221467
      2.95000000	      0.66462728	     -8.42337082	    102.32185335	      0.20020654	      1.03205514	      0.38046653	      7.78052695	     -3.13198192	    -18.13332188	     14.26026593	      0.24888859	     38.85125343	      2.13680156	      0.00000000	      4.95169798	      1.65992318	     18.33214468	      1.95646446	      0.03414675	     30.26901234	     -7.87874546	      0.00000000	     -0.10378697	      0.24848268	     -0.85742545	     -0.19274278	      0.33048196	     -0.91101454	     -0.17051161	      0.60416079	     -0.91101454	     -0.11861812	      0.60416079	     -0.75024727	     -0.09637658	      0.50670588	     -0.69665817	     -0.05930387	      0.38489967	     -0.64306908	     -0.74133992	      2.81088576	     -4.76874310	      0.00000000	      0.00000000	     22.11449209	     -3.66597328	      3.48965395	     12.52967776	    -19.33228392	     85.19281436	      9.31653949	      6.38689428	     -3.94234181	    -10.19135129	    -12.46575007	    -27.71415101	     68.08010884	      3.05018511	     34.80016007	     -7.66530168	     -1.10987614
      2.96666667	      1.11296118	     -8.58130716	    102.25912049	      0.19894372	      1.03082454	      0.38007332	      7.97380265	     -2.78953155	    -18.29329840	     14.43386062	      0.25191839	     38.92925078	      2.39977940	      0.00000000	      5.13455956	      1.32612886	     18.37912530	      1.98219511	      0.03459583	     30.52171363	     -8.16356251	      0.00000000	     -0.05500317	      0.32438459	     -0.66793189	     -0.10214639	      0.43143150	     -0.70967763	     -0.09036471	      0.78870868	     -0.70967763	     -0.06286313	      0.78870868	     -0.58444040	     -0.05107595	      0.66148505	     -0.54269466	     -0.03142881	      0.50247172	     -0.50094891	     -0.39288217	      3.66950331	     -3.71483677	      0.00000000	      0.00000000	     22.81633822	     -3.90502076	      4.93539873	      3.99476588	    -18.84173862	      9.89203884	     25.30102364	     69.47933592	    -10.20444544	      1.41808540	     -9.66371616	    -26.61849385	     70.46528819	      2.83307477	     45.69518737	     -7.93014338	     -1.82681104
